<svg id="Layer_1" data-name="Layer 1" xmlns="http://www.w3.org/2000/svg" viewBox="0 0 685.49 60.91">
  <defs>
    <style>
      .cls-1 {
        fill: #fff;
      }
    </style>
  </defs>
  <title>vuforia-spatialtoolbox-darkBG</title>
  <path class="cls-1" d="M37.71,22.63,24.77,55.81H18.93l-13-33.18h5.44L21.85,50.5,32.27,22.63Z" transform="translate(-5.93 -8.53)"/>
  <path class="cls-1" d="M66.3,55.81V50.63a16.63,16.63,0,0,1-4.38,4A10.73,10.73,0,0,1,56,56.34a15.78,15.78,0,0,1-5.71-.93,11.64,11.64,0,0,1-4.18-2.79A14.32,14.32,0,0,1,42,41.94V22.63h5V41.81a10.15,10.15,0,0,0,2.58,7.29,8.83,8.83,0,0,0,6.71,2.73A9.87,9.87,0,0,0,63.38,49a9.76,9.76,0,0,0,2.92-7.3V22.63h5V55.81Z" transform="translate(-5.93 -8.53)"/>
  <path class="cls-1" d="M94.17,13.54A7.73,7.73,0,0,0,88.9,15.1c-1.18,1-1.76,2.71-1.76,5v2.52h7.69V27H87.14v28.8h-5V19.71q0-5.45,3.25-8.16t9-2.72h.39v4.71Z" transform="translate(-5.93 -8.53)"/>
  <path class="cls-1" d="M114,22.1a15.74,15.74,0,0,1,12.07,5,17.26,17.26,0,0,1,4.38,12.14,17.27,17.27,0,0,1-4.38,12.14,15.74,15.74,0,0,1-12.07,5,15.76,15.76,0,0,1-12.08-5,17.27,17.27,0,0,1-4.38-12.14,17.26,17.26,0,0,1,4.38-12.14A15.76,15.76,0,0,1,114,22.1Zm0,29.73a10.5,10.5,0,0,0,8.49-3.72,13.26,13.26,0,0,0,3-8.89,13.26,13.26,0,0,0-3-8.89,11.55,11.55,0,0,0-17,0,13.26,13.26,0,0,0-3,8.89,13.26,13.26,0,0,0,3,8.89A10.48,10.48,0,0,0,114,51.83Z" transform="translate(-5.93 -8.53)"/>
  <path class="cls-1" d="M154.55,22.1v5H154a10.63,10.63,0,0,0-8.76,4.31A15.58,15.58,0,0,0,142,41.21v14.6h-5V22.63h5v8.16a12.57,12.57,0,0,1,12.21-8.69Z" transform="translate(-5.93 -8.53)"/>
  <path class="cls-1" d="M162.38,10.42a3.3,3.3,0,0,1,2.45,1,3.23,3.23,0,0,1,1,2.39,3.3,3.3,0,0,1-1,2.45,3.45,3.45,0,0,1-5.9-2.45,3.26,3.26,0,0,1,1-2.39A3.31,3.31,0,0,1,162.38,10.42Zm-2.46,12.21h5V55.81h-5Z" transform="translate(-5.93 -8.53)"/>
  <path class="cls-1" d="M199.4,50.5c-2.66,3.89-6.61,5.84-11.88,5.84a15,15,0,0,1-11.68-5,17.57,17.57,0,0,1-4.38-12.14,17.57,17.57,0,0,1,4.38-12.14q4.51-5,12-5A13.17,13.17,0,0,1,199.4,28V22.63h5V55.81h-5Zm-11.22,1.33a10.5,10.5,0,0,0,8.5-3.72,13.25,13.25,0,0,0,3-8.89,13.25,13.25,0,0,0-3-8.89,10.5,10.5,0,0,0-8.5-3.72,11,11,0,0,0-8.62,3.72,12.9,12.9,0,0,0-3.12,8.89,12.9,12.9,0,0,0,3.12,8.89A11,11,0,0,0,188.18,51.83Z" transform="translate(-5.93 -8.53)"/>
  <path class="cls-1" d="M214.52,22.68a5,5,0,0,1,2,.4,5.26,5.26,0,0,1,1.63,1.1,5.14,5.14,0,0,1,1.1,1.64,5.08,5.08,0,0,1,0,4,5.21,5.21,0,0,1-1.1,1.63,5.26,5.26,0,0,1-1.63,1.1,5,5,0,0,1-2,.4,4.91,4.91,0,0,1-2-.4,5.26,5.26,0,0,1-1.63-1.1,5.38,5.38,0,0,1-1.1-1.63,5.08,5.08,0,0,1,0-4,5.13,5.13,0,0,1,2.73-2.74A4.91,4.91,0,0,1,214.52,22.68Zm0,9.54a4.25,4.25,0,0,0,3.12-1.29,4.51,4.51,0,0,0,1-1.4,4.5,4.5,0,0,0,0-3.43,4.51,4.51,0,0,0-1-1.4,4.25,4.25,0,0,0-3.12-1.29,4.16,4.16,0,0,0-3.1,1.29,4.43,4.43,0,0,0-.95,4.83,4.51,4.51,0,0,0,.95,1.4A4.16,4.16,0,0,0,214.52,32.22Zm2.54-5.57a1.46,1.46,0,0,1-.3.91,1.58,1.58,0,0,1-.83.56,1.49,1.49,0,0,1,1,1.35,3.25,3.25,0,0,1,0,.51v.71h-1v-.57a2.31,2.31,0,0,0-.14-.93,1,1,0,0,0-1-.6h-1.45v2.1h-1.05V25h2.43a2.79,2.79,0,0,1,1.78.46A1.53,1.53,0,0,1,217.06,26.65Zm-2.42,1a1.86,1.86,0,0,0,1-.24.76.76,0,0,0,.37-.68.84.84,0,0,0-.3-.68,1.77,1.77,0,0,0-1.11-.25h-1.27v1.85Z" transform="translate(-5.93 -8.53)"/>
  <path class="cls-1" d="M677.24,23.16v-1h6v1h-2.49v6.32h-1V23.16Zm13.11-1h1.07v7.3h-1V23.85L688,27l-2.46-3.12v5.63h-1v-7.3h1.09l2.4,3.2Z" transform="translate(-5.93 -8.53)"/>
  <path class="cls-1" d="M261.83,31.18q-.68-5.3-8.45-5.29t-7.77,4.88a3.41,3.41,0,0,0,1.65,3.09,14.83,14.83,0,0,0,4.13,1.73q2.49.67,5.42,1.26a27.43,27.43,0,0,1,5.42,1.62,11.39,11.39,0,0,1,4.14,2.89,7.21,7.21,0,0,1,1.65,5,8.7,8.7,0,0,1-3.7,7.57q-3.7,2.61-10,2.61-6.73,0-10.7-3.39a10.4,10.4,0,0,1-3.91-7.8h5.25q.48,4.68,5.25,6.31a11.77,11.77,0,0,0,3.47.54,22.93,22.93,0,0,0,3.2-.21,12.79,12.79,0,0,0,2.89-.74A4.51,4.51,0,0,0,263,46.85a3.65,3.65,0,0,0-1.65-3.22,14.18,14.18,0,0,0-4.14-1.83c-1.66-.48-3.46-.91-5.42-1.29a29.49,29.49,0,0,1-5.41-1.6,11.4,11.4,0,0,1-4.14-2.78,6.85,6.85,0,0,1-1.65-4.88,8.49,8.49,0,0,1,3.33-7.16q3.33-2.53,9.86-2.54,6.19,0,9.76,3a9.84,9.84,0,0,1,3.43,6.65Z" transform="translate(-5.93 -8.53)"/>
  <path class="cls-1" d="M279.53,27.52q4-6,12.05-6a15,15,0,0,1,11.78,5.09,17.9,17.9,0,0,1,4.51,12.41,17.9,17.9,0,0,1-4.51,12.41q-4.51,5.09-12.12,5.09a13.32,13.32,0,0,1-11.71-6V69.44h-5V22.09h5Zm11.37-1.36a10.62,10.62,0,0,0-8.61,3.8,13.63,13.63,0,0,0-3,9.09,13.63,13.63,0,0,0,3,9.09,10.62,10.62,0,0,0,8.61,3.8,11.15,11.15,0,0,0,8.75-3.8,13.27,13.27,0,0,0,3.17-9.09A13.27,13.27,0,0,0,299.65,30,11.15,11.15,0,0,0,290.9,26.16Z" transform="translate(-5.93 -8.53)"/>
  <path class="cls-1" d="M340.71,50.58q-4,6-12,6a15.2,15.2,0,0,1-11.84-5.09,18,18,0,0,1-4.44-12.41,18,18,0,0,1,4.44-12.41A15.59,15.59,0,0,1,329,21.55a13.32,13.32,0,0,1,11.71,6v-5.5h5.05V56h-5.05Zm-11.37,1.36a10.62,10.62,0,0,0,8.61-3.8,13.63,13.63,0,0,0,3-9.09A13.63,13.63,0,0,0,338,30a10.62,10.62,0,0,0-8.61-3.8,11.15,11.15,0,0,0-8.75,3.8,13.27,13.27,0,0,0-3.17,9.09,13.27,13.27,0,0,0,3.17,9.09A11.15,11.15,0,0,0,329.34,51.94Z" transform="translate(-5.93 -8.53)"/>
  <path class="cls-1" d="M358.14,56V26.57h-6.86V22.09h6.86V10h5.05V22.09h7.74v4.48h-7.74V56Z" transform="translate(-5.93 -8.53)"/>
  <path class="cls-1" d="M378.94,9.61a3.36,3.36,0,0,1,2.49,1,3.31,3.31,0,0,1,1,2.44,3.39,3.39,0,0,1-1,2.51,3.55,3.55,0,0,1-5,0,3.43,3.43,0,0,1-1-2.51,3.35,3.35,0,0,1,1-2.44A3.39,3.39,0,0,1,378.94,9.61Zm-2.49,12.48h5.05V56h-5.05Z" transform="translate(-5.93 -8.53)"/>
  <path class="cls-1" d="M416.5,50.58q-4,6-12.05,6a15.2,15.2,0,0,1-11.84-5.09,18,18,0,0,1-4.45-12.41,18,18,0,0,1,4.45-12.41,15.59,15.59,0,0,1,12.18-5.09,13.32,13.32,0,0,1,11.71,6v-5.5h5.05V56H416.5Zm-11.37,1.36a10.62,10.62,0,0,0,8.61-3.8,13.63,13.63,0,0,0,3-9.09,13.63,13.63,0,0,0-3-9.09,10.62,10.62,0,0,0-8.61-3.8,11.15,11.15,0,0,0-8.75,3.8,13.27,13.27,0,0,0-3.17,9.09,13.27,13.27,0,0,0,3.17,9.09A11.15,11.15,0,0,0,405.13,51.94Z" transform="translate(-5.93 -8.53)"/>
  <path class="cls-1" d="M435.35,56H430.3V8.53h5.05Z" transform="translate(-5.93 -8.53)"/>
  <path class="cls-1" d="M462.07,56V26.57H455.2V22.09h6.87V10h5.05V22.09h7.74v4.48h-7.74V56Z" transform="translate(-5.93 -8.53)"/>
  <path class="cls-1" d="M494.31,21.55a15.94,15.94,0,0,1,12.25,5.09A17.73,17.73,0,0,1,511,39.05a17.73,17.73,0,0,1-4.44,12.41,17.29,17.29,0,0,1-24.5,0,17.73,17.73,0,0,1-4.44-12.41,17.73,17.73,0,0,1,4.44-12.41A15.93,15.93,0,0,1,494.31,21.55Zm0,30.39a10.62,10.62,0,0,0,8.61-3.8,13.63,13.63,0,0,0,3-9.09,13.63,13.63,0,0,0-3-9.09,11.67,11.67,0,0,0-17.23,0,13.63,13.63,0,0,0-3,9.09,13.63,13.63,0,0,0,3,9.09A10.63,10.63,0,0,0,494.31,51.94Z" transform="translate(-5.93 -8.53)"/>
  <path class="cls-1" d="M532.27,21.55a15.93,15.93,0,0,1,12.25,5.09A17.73,17.73,0,0,1,549,39.05a17.73,17.73,0,0,1-4.44,12.41,17.29,17.29,0,0,1-24.5,0,17.73,17.73,0,0,1-4.44-12.41A17.73,17.73,0,0,1,520,26.64,15.93,15.93,0,0,1,532.27,21.55Zm0,30.39a10.63,10.63,0,0,0,8.62-3.8,13.63,13.63,0,0,0,3-9.09,13.63,13.63,0,0,0-3-9.09,11.68,11.68,0,0,0-17.24,0,13.68,13.68,0,0,0-3,9.09,13.68,13.68,0,0,0,3,9.09A10.64,10.64,0,0,0,532.27,51.94Z" transform="translate(-5.93 -8.53)"/>
  <path class="cls-1" d="M560.67,56h-5V8.53h5Z" transform="translate(-5.93 -8.53)"/>
  <path class="cls-1" d="M574.47,27.59q4.11-6,12-6a15,15,0,0,1,11.78,5.09,17.86,17.86,0,0,1,4.51,12.41,17.86,17.86,0,0,1-4.51,12.41q-4.51,5.09-12.15,5.09a13.24,13.24,0,0,1-11.68-6V56h-5.05V8.53h5.05Zm11.38,24.35a11.16,11.16,0,0,0,8.75-3.8,13.26,13.26,0,0,0,3.16-9.09A13.26,13.26,0,0,0,594.6,30a11.16,11.16,0,0,0-8.75-3.8,10.63,10.63,0,0,0-8.62,3.8,13.63,13.63,0,0,0-3,9.09,13.63,13.63,0,0,0,3,9.09A10.63,10.63,0,0,0,585.85,51.94Z" transform="translate(-5.93 -8.53)"/>
  <path class="cls-1" d="M624,21.55a15.93,15.93,0,0,1,12.25,5.09,17.73,17.73,0,0,1,4.44,12.41,17.73,17.73,0,0,1-4.44,12.41,17.29,17.29,0,0,1-24.5,0,17.73,17.73,0,0,1-4.44-12.41,17.73,17.73,0,0,1,4.44-12.41A15.94,15.94,0,0,1,624,21.55Zm0,30.39a10.63,10.63,0,0,0,8.62-3.8,13.63,13.63,0,0,0,3-9.09,13.63,13.63,0,0,0-3-9.09,11.67,11.67,0,0,0-17.23,0,13.63,13.63,0,0,0-3,9.09,13.63,13.63,0,0,0,3,9.09A10.62,10.62,0,0,0,624,51.94Z" transform="translate(-5.93 -8.53)"/>
  <path class="cls-1" d="M660.7,38.51l13,17.5h-6.46L657.8,42.17,648.24,56h-6.39l13-17.5L642.66,22.09h6.46l8.68,12.82,8.62-12.82h6.46Z" transform="translate(-5.93 -8.53)"/>
</svg>
